# xmcd
#
# Track frame offsets: 
#        150
#        12890
#        27588
#        41546
#        53773
#        66736
#        77831
#        94076
#        104558
#        116905
#        127483
#        139211
#        162041
#        174311
#        186051
#        196176
#        208426
#        222204
#
# Disc length: 3144 seconds
#
# Revision: 0
# Processed by: cddbd v1.5.2PL0 Copyright (c) Steve Scherf et al.
# Submitted via: ExactAudioCopyFreeDBPlugin 1.0
#
DISCID=140c4612
DTITLE=Various Artist - Imagine The Blues CD4
DYEAR=2011
DGENRE=Blues
TTITLE0=B.B. King - Sing The Blues
TTITLE1=John Lee Hooker - Tupelo
TTITLE2=Muddy Waters - Deep Down In My Heart
TTITLE3=Howlin' Wolf - Back Door Man
TTITLE4=Albert King - Let's Have A Natural Ball
TTITLE5=Lowell Fulson - Blue Shadows
TTITLE6=Lonnie Johnson - Blues' Round My Door
TTITLE7=Little Walter - I Don't Play
TTITLE8=J.B. Lenoir - Mojo Boogie
TTITLE9=Lightnin’ Hopkins - Nothin' But The Blues
TTITLE10=Champion Jack Dupree - Blues For Everybody
TTITLE11=Big Joe Turner - In The Evening
TTITLE12=Jimmy Rogers - Chicago Bound
TTITLE13=B.B. King - Dark Is The Night Part 1
TTITLE14=John Lee Hooker - Dimples
TTITLE15=Elmore James - Blues Before Sunrise
TTITLE16=Muddy Waters - I'm Ready
TTITLE17=Eddie "Guitar Slim" Jones - The Things That I Used To Do
EXTD=
EXTT0=
EXTT1=
EXTT2=
EXTT3=
EXTT4=
EXTT5=
EXTT6=
EXTT7=
EXTT8=
EXTT9=
EXTT10=
EXTT11=
EXTT12=
EXTT13=
EXTT14=
EXTT15=
EXTT16=
EXTT17=
PLAYORDER=
